No personal conf_private.py found.
doodad not detected
2022-04-17 12:15:40.513766 EDT | Variant:
2022-04-17 12:15:40.513978 EDT | {
  "seed": 1,
  "algorithm": "DIAYN",
  "env_name": "AntEnv",
  "algo_kwargs": {
    "batch_size": 256,
    "num_epochs": 100,
    "num_eval_steps_per_epoch": 25000,
    "num_expl_steps_per_train_loop": "None",
    "num_trains_per_train_loop": 100,
    "min_num_steps_before_training": 1000,
    "max_path_length": 1000,
    "num_train_loops_per_epoch": 1
  },
  "trainer_kwargs": {
    "discount": "None",
    "soft_target_tau": 0.005,
    "target_update_period": 1,
    "policy_lr": "None",
    "qf_lr": "None",
    "reward_scale": 1,
    "use_automatic_entropy_tuning": true
  },
  "replay_buffer_kwargs": {
    "max_replay_buffer_size": "None",
    "latent_dim": 1,
    "approx_irl": true,
    "plot": true
  },
  "relabeler_kwargs": {
    "relabel": true,
    "use_adv": true,
    "n_sampled_latents": 5,
    "n_to_take": 1,
    "cache": true
  },
  "qf_kwargs": {
    "hidden_sizes": [
      256,
      256
    ],
    "latent_shape_multiplier": 1,
    "latent_to_all_layers": true
  },
  "policy_kwargs": {
    "hidden_sizes": [
      256,
      256
    ],
    "latent_shape_multiplier": 1,
    "latent_to_all_layers": true
  },
  "path_collector_kwargs": {
    "save_videos": true
  },
  "use_advantages": true,
  "proper_advantages": true,
  "plot": true,
  "test": true,
  "gpu": 0,
  "mode": "here_no_doodad",
  "local_docker": false,
  "insert_time": true,
  "latent_shape_multiplier": 1,
  "env_kwargs": {
    "use_xy": true,
    "contact_forces": true
  },
  "gpu_id": 0
}
OpenCV: FFMPEG: tag 0x44495658/'XVID' is not supported with codec id 12 and format 'mp4 / MP4 (MPEG-4 Part 14)'
OpenCV: FFMPEG: fallback to use tag 0x7634706d/'mp4v'
ffmpeg version 4.2.4-1ubuntu0.1 Copyright (c) 2000-2020 the FFmpeg developers
  built with gcc 9 (Ubuntu 9.3.0-10ubuntu2)
  configuration: --prefix=/usr --extra-version=1ubuntu0.1 --toolchain=hardened --libdir=/usr/lib/x86_64-linux-gnu --incdir=/usr/include/x86_64-linux-gnu --arch=amd64 --enable-gpl --disable-stripping --enable-avresample --disable-filter=resample --enable-avisynth --enable-gnutls --enable-ladspa --enable-libaom --enable-libass --enable-libbluray --enable-libbs2b --enable-libcaca --enable-libcdio --enable-libcodec2 --enable-libflite --enable-libfontconfig --enable-libfreetype --enable-libfribidi --enable-libgme --enable-libgsm --enable-libjack --enable-libmp3lame --enable-libmysofa --enable-libopenjpeg --enable-libopenmpt --enable-libopus --enable-libpulse --enable-librsvg --enable-librubberband --enable-libshine --enable-libsnappy --enable-libsoxr --enable-libspeex --enable-libssh --enable-libtheora --enable-libtwolame --enable-libvidstab --enable-libvorbis --enable-libvpx --enable-libwavpack --enable-libwebp --enable-libx265 --enable-libxml2 --enable-libxvid --enable-libzmq --enable-libzvbi --enable-lv2 --enable-omx --enable-openal --enable-opencl --enable-opengl --enable-sdl2 --enable-libdc1394 --enable-libdrm --enable-libiec61883 --enable-nvenc --enable-chromaprint --enable-frei0r --enable-libx264 --enable-shared
  libavutil      56. 31.100 / 56. 31.100
  libavcodec     58. 54.100 / 58. 54.100
  libavformat    58. 29.100 / 58. 29.100
  libavdevice    58.  8.100 / 58.  8.100
  libavfilter     7. 57.100 /  7. 57.100
  libavresample   4.  0.  0 /  4.  0.  0
  libswscale      5.  5.100 /  5.  5.100
  libswresample   3.  5.100 /  3.  5.100
  libpostproc    55.  5.100 / 55.  5.100
Input #0, mov,mp4,m4a,3gp,3g2,mj2, from '/home/yb1025/Research/GRAIL/relabeler-irl/accelerate-skillDiscovery/generalized-hindsight/rlkit/../data/None-None-test/None-None-test_2022_04_17_12_15_40_0000--s-1/epoch0_0_temp.mp4':
  Metadata:
    major_brand     : isom
    minor_version   : 512
    compatible_brands: isomiso2mp41
    encoder         : Lavf58.76.100
  Duration: 00:00:13.92, start: 0.000000, bitrate: 1016 kb/s
    Stream #0:0(und): Video: mpeg4 (Simple Profile) (mp4v / 0x7634706D), yuv420p, 500x500 [SAR 1:1 DAR 1:1], 1014 kb/s, 24 fps, 24 tbr, 12288 tbn, 24 tbc (default)
    Metadata:
      handler_name    : VideoHandler
Stream mapping:
  Stream #0:0 -> #0:0 (mpeg4 (native) -> h264 (libx264))
Press [q] to stop, [?] for help
[libx264 @ 0x55ff4765ce40] using SAR=1/1
[libx264 @ 0x55ff4765ce40] using cpu capabilities: MMX2 SSE2Fast SSSE3 SSE4.2 AVX FMA3 BMI2 AVX2 AVX512
[libx264 @ 0x55ff4765ce40] profile High, level 3.0
[libx264 @ 0x55ff4765ce40] 264 - core 155 r2917 0a84d98 - H.264/MPEG-4 AVC codec - Copyleft 2003-2018 - http://www.videolan.org/x264.html - options: cabac=1 ref=3 deblock=1:0:0 analyse=0x3:0x113 me=hex subme=7 psy=1 psy_rd=1.00:0.00 mixed_ref=1 me_range=16 chroma_me=1 trellis=1 8x8dct=1 cqm=0 deadzone=21,11 fast_pskip=1 chroma_qp_offset=-2 threads=3 lookahead_threads=1 sliced_threads=0 nr=0 decimate=1 interlaced=0 bluray_compat=0 constrained_intra=0 bframes=3 b_pyramid=2 b_adapt=1 b_bias=0 direct=1 weightb=1 open_gop=0 weightp=2 keyint=250 keyint_min=24 scenecut=40 intra_refresh=0 rc_lookahead=40 rc=crf mbtree=1 crf=20.0 qcomp=0.60 qpmin=0 qpmax=69 qpstep=4 ip_ratio=1.40 aq=1:1.00
Output #0, mp4, to '/home/yb1025/Research/GRAIL/relabeler-irl/accelerate-skillDiscovery/generalized-hindsight/rlkit/../data/None-None-test/None-None-test_2022_04_17_12_15_40_0000--s-1/epoch0_0.mp4':
  Metadata:
    major_brand     : isom
    minor_version   : 512
    compatible_brands: isomiso2mp41
    encoder         : Lavf58.29.100
    Stream #0:0(und): Video: h264 (libx264) (avc1 / 0x31637661), yuv420p, 500x500 [SAR 1:1 DAR 1:1], q=-1--1, 24 fps, 12288 tbn, 24 tbc (default)
    Metadata:
      handler_name    : VideoHandler
      encoder         : Lavc58.54.100 libx264
    Side data:
      cpb: bitrate max/min/avg: 0/0/0 buffer size: 0 vbv_delay: -1
frame=  217 fps=0.0 q=25.0 size=       0kB time=00:00:06.95 bitrate=   0.1kbits/s speed=13.8x    frame=  334 fps=0.0 q=-1.0 Lsize=     130kB time=00:00:13.79 bitrate=  77.4kbits/s speed=16.3x    
video:126kB audio:0kB subtitle:0kB other streams:0kB global headers:0kB muxing overhead: 3.771326%
[libx264 @ 0x55ff4765ce40] frame I:2     Avg QP:17.72  size: 32640
[libx264 @ 0x55ff4765ce40] frame P:84    Avg QP:19.59  size:   473
[libx264 @ 0x55ff4765ce40] frame B:248   Avg QP:26.00  size:    92
[libx264 @ 0x55ff4765ce40] consecutive B-frames:  0.9%  0.0%  0.9% 98.2%
[libx264 @ 0x55ff4765ce40] mb I  I16..4: 34.3% 13.5% 52.2%
[libx264 @ 0x55ff4765ce40] mb P  I16..4:  0.3%  0.3%  0.1%  P16..4:  2.6%  0.2%  0.2%  0.0%  0.0%    skip:96.3%
[libx264 @ 0x55ff4765ce40] mb B  I16..4:  1.1%  0.0%  0.0%  B16..8:  3.1%  0.0%  0.0%  direct: 0.0%  skip:95.6%  L0:62.1% L1:37.7% BI: 0.2%
[libx264 @ 0x55ff4765ce40] 8x8 transform intra:10.3% inter:72.0%
[libx264 @ 0x55ff4765ce40] coded y,uvDC,uvAC intra: 16.5% 44.5% 22.7% inter: 0.3% 0.5% 0.3%
[libx264 @ 0x55ff4765ce40] i16 v,h,dc,p: 46% 42% 12%  0%
[libx264 @ 0x55ff4765ce40] i8 v,h,dc,ddl,ddr,vr,hd,vl,hu: 27%  9% 55%  3%  1%  1%  1%  2%  2%
[libx264 @ 0x55ff4765ce40] i4 v,h,dc,ddl,ddr,vr,hd,vl,hu: 26% 40% 15%  2%  2%  6%  2%  5%  2%
[libx264 @ 0x55ff4765ce40] i8c dc,h,v,p: 36% 53% 10%  2%
[libx264 @ 0x55ff4765ce40] Weighted P-Frames: Y:0.0% UV:0.0%
[libx264 @ 0x55ff4765ce40] ref P L0: 80.2%  2.7% 14.0%  3.1%
[libx264 @ 0x55ff4765ce40] ref B L0: 53.8% 45.4%  0.8%
[libx264 @ 0x55ff4765ce40] ref B L1: 96.1%  3.9%
[libx264 @ 0x55ff4765ce40] kb/s:73.53
OpenCV: FFMPEG: tag 0x44495658/'XVID' is not supported with codec id 12 and format 'mp4 / MP4 (MPEG-4 Part 14)'
OpenCV: FFMPEG: fallback to use tag 0x7634706d/'mp4v'
ffmpeg version 4.2.4-1ubuntu0.1 Copyright (c) 2000-2020 the FFmpeg developers
  built with gcc 9 (Ubuntu 9.3.0-10ubuntu2)
  configuration: --prefix=/usr --extra-version=1ubuntu0.1 --toolchain=hardened --libdir=/usr/lib/x86_64-linux-gnu --incdir=/usr/include/x86_64-linux-gnu --arch=amd64 --enable-gpl --disable-stripping --enable-avresample --disable-filter=resample --enable-avisynth --enable-gnutls --enable-ladspa --enable-libaom --enable-libass --enable-libbluray --enable-libbs2b --enable-libcaca --enable-libcdio --enable-libcodec2 --enable-libflite --enable-libfontconfig --enable-libfreetype --enable-libfribidi --enable-libgme --enable-libgsm --enable-libjack --enable-libmp3lame --enable-libmysofa --enable-libopenjpeg --enable-libopenmpt --enable-libopus --enable-libpulse --enable-librsvg --enable-librubberband --enable-libshine --enable-libsnappy --enable-libsoxr --enable-libspeex --enable-libssh --enable-libtheora --enable-libtwolame --enable-libvidstab --enable-libvorbis --enable-libvpx --enable-libwavpack --enable-libwebp --enable-libx265 --enable-libxml2 --enable-libxvid --enable-libzmq --enable-libzvbi --enable-lv2 --enable-omx --enable-openal --enable-opencl --enable-opengl --enable-sdl2 --enable-libdc1394 --enable-libdrm --enable-libiec61883 --enable-nvenc --enable-chromaprint --enable-frei0r --enable-libx264 --enable-shared
  libavutil      56. 31.100 / 56. 31.100
  libavcodec     58. 54.100 / 58. 54.100
  libavformat    58. 29.100 / 58. 29.100
  libavdevice    58.  8.100 / 58.  8.100
  libavfilter     7. 57.100 /  7. 57.100
  libavresample   4.  0.  0 /  4.  0.  0
  libswscale      5.  5.100 /  5.  5.100
  libswresample   3.  5.100 /  3.  5.100
  libpostproc    55.  5.100 / 55.  5.100
Input #0, mov,mp4,m4a,3gp,3g2,mj2, from '/home/yb1025/Research/GRAIL/relabeler-irl/accelerate-skillDiscovery/generalized-hindsight/rlkit/../data/None-None-test/None-None-test_2022_04_17_12_15_40_0000--s-1/epoch0_1_temp.mp4':
  Metadata:
    major_brand     : isom
    minor_version   : 512
    compatible_brands: isomiso2mp41
    encoder         : Lavf58.76.100
  Duration: 00:00:13.92, start: 0.000000, bitrate: 1014 kb/s
    Stream #0:0(und): Video: mpeg4 (Simple Profile) (mp4v / 0x7634706D), yuv420p, 500x500 [SAR 1:1 DAR 1:1], 1012 kb/s, 24 fps, 24 tbr, 12288 tbn, 24 tbc (default)
    Metadata:
      handler_name    : VideoHandler
Stream mapping:
  Stream #0:0 -> #0:0 (mpeg4 (native) -> h264 (libx264))
Press [q] to stop, [?] for help
[libx264 @ 0x561792969b80] using SAR=1/1
[libx264 @ 0x561792969b80] using cpu capabilities: MMX2 SSE2Fast SSSE3 SSE4.2 AVX FMA3 BMI2 AVX2 AVX512
[libx264 @ 0x561792969b80] profile High, level 3.0
[libx264 @ 0x561792969b80] 264 - core 155 r2917 0a84d98 - H.264/MPEG-4 AVC codec - Copyleft 2003-2018 - http://www.videolan.org/x264.html - options: cabac=1 ref=3 deblock=1:0:0 analyse=0x3:0x113 me=hex subme=7 psy=1 psy_rd=1.00:0.00 mixed_ref=1 me_range=16 chroma_me=1 trellis=1 8x8dct=1 cqm=0 deadzone=21,11 fast_pskip=1 chroma_qp_offset=-2 threads=3 lookahead_threads=1 sliced_threads=0 nr=0 decimate=1 interlaced=0 bluray_compat=0 constrained_intra=0 bframes=3 b_pyramid=2 b_adapt=1 b_bias=0 direct=1 weightb=1 open_gop=0 weightp=2 keyint=250 keyint_min=24 scenecut=40 intra_refresh=0 rc_lookahead=40 rc=crf mbtree=1 crf=20.0 qcomp=0.60 qpmin=0 qpmax=69 qpstep=4 ip_ratio=1.40 aq=1:1.00
Output #0, mp4, to '/home/yb1025/Research/GRAIL/relabeler-irl/accelerate-skillDiscovery/generalized-hindsight/rlkit/../data/None-None-test/None-None-test_2022_04_17_12_15_40_0000--s-1/epoch0_1.mp4':
  Metadata:
    major_brand     : isom
    minor_version   : 512
    compatible_brands: isomiso2mp41
    encoder         : Lavf58.29.100
    Stream #0:0(und): Video: h264 (libx264) (avc1 / 0x31637661), yuv420p, 500x500 [SAR 1:1 DAR 1:1], q=-1--1, 24 fps, 12288 tbn, 24 tbc (default)
    Metadata:
      handler_name    : VideoHandler
      encoder         : Lavc58.54.100 libx264
    Side data:
      cpb: bitrate max/min/avg: 0/0/0 buffer size: 0 vbv_delay: -1
frame=  186 fps=0.0 q=25.0 size=       0kB time=00:00:05.66 bitrate=   0.1kbits/s speed=11.3x    frame=  334 fps=0.0 q=-1.0 Lsize=     127kB time=00:00:13.79 bitrate=  75.2kbits/s speed=  15x    
video:122kB audio:0kB subtitle:0kB other streams:0kB global headers:0kB muxing overhead: 3.874794%
[libx264 @ 0x561792969b80] frame I:2     Avg QP:17.79  size: 32684
[libx264 @ 0x561792969b80] frame P:85    Avg QP:21.54  size:   487
[libx264 @ 0x561792969b80] frame B:247   Avg QP:26.88  size:    70
[libx264 @ 0x561792969b80] consecutive B-frames:  1.2%  0.0%  1.8% 97.0%
[libx264 @ 0x561792969b80] mb I  I16..4: 33.8% 14.6% 51.6%
[libx264 @ 0x561792969b80] mb P  I16..4:  0.4%  0.3%  0.1%  P16..4:  2.7%  0.2%  0.2%  0.0%  0.0%    skip:96.1%
[libx264 @ 0x561792969b80] mb B  I16..4:  0.1%  0.1%  0.0%  B16..8:  5.3%  0.1%  0.0%  direct: 0.0%  skip:94.4%  L0:67.5% L1:32.5% BI: 0.1%
[libx264 @ 0x561792969b80] 8x8 transform intra:20.6% inter:74.1%
[libx264 @ 0x561792969b80] coded y,uvDC,uvAC intra: 28.8% 58.7% 34.8% inter: 0.3% 0.5% 0.3%
[libx264 @ 0x561792969b80] i16 v,h,dc,p: 33% 56% 11%  0%
[libx264 @ 0x561792969b80] i8 v,h,dc,ddl,ddr,vr,hd,vl,hu: 18% 10% 62%  3%  1%  2%  1%  2%  2%
[libx264 @ 0x561792969b80] i4 v,h,dc,ddl,ddr,vr,hd,vl,hu: 26% 40% 15%  3%  2%  6%  2%  5%  1%
[libx264 @ 0x561792969b80] i8c dc,h,v,p: 35% 46% 16%  4%
[libx264 @ 0x561792969b80] Weighted P-Frames: Y:0.0% UV:0.0%
[libx264 @ 0x561792969b80] ref P L0: 78.4%  2.8% 16.3%  2.5%
[libx264 @ 0x561792969b80] ref B L0: 46.2% 53.4%  0.4%
[libx264 @ 0x561792969b80] ref B L1: 98.7%  1.3%
[libx264 @ 0x561792969b80] kb/s:71.32
OpenCV: FFMPEG: tag 0x44495658/'XVID' is not supported with codec id 12 and format 'mp4 / MP4 (MPEG-4 Part 14)'
OpenCV: FFMPEG: fallback to use tag 0x7634706d/'mp4v'
ffmpeg version 4.2.4-1ubuntu0.1 Copyright (c) 2000-2020 the FFmpeg developers
  built with gcc 9 (Ubuntu 9.3.0-10ubuntu2)
  configuration: --prefix=/usr --extra-version=1ubuntu0.1 --toolchain=hardened --libdir=/usr/lib/x86_64-linux-gnu --incdir=/usr/include/x86_64-linux-gnu --arch=amd64 --enable-gpl --disable-stripping --enable-avresample --disable-filter=resample --enable-avisynth --enable-gnutls --enable-ladspa --enable-libaom --enable-libass --enable-libbluray --enable-libbs2b --enable-libcaca --enable-libcdio --enable-libcodec2 --enable-libflite --enable-libfontconfig --enable-libfreetype --enable-libfribidi --enable-libgme --enable-libgsm --enable-libjack --enable-libmp3lame --enable-libmysofa --enable-libopenjpeg --enable-libopenmpt --enable-libopus --enable-libpulse --enable-librsvg --enable-librubberband --enable-libshine --enable-libsnappy --enable-libsoxr --enable-libspeex --enable-libssh --enable-libtheora --enable-libtwolame --enable-libvidstab --enable-libvorbis --enable-libvpx --enable-libwavpack --enable-libwebp --enable-libx265 --enable-libxml2 --enable-libxvid --enable-libzmq --enable-libzvbi --enable-lv2 --enable-omx --enable-openal --enable-opencl --enable-opengl --enable-sdl2 --enable-libdc1394 --enable-libdrm --enable-libiec61883 --enable-nvenc --enable-chromaprint --enable-frei0r --enable-libx264 --enable-shared
  libavutil      56. 31.100 / 56. 31.100
  libavcodec     58. 54.100 / 58. 54.100
  libavformat    58. 29.100 / 58. 29.100
  libavdevice    58.  8.100 / 58.  8.100
  libavfilter     7. 57.100 /  7. 57.100
  libavresample   4.  0.  0 /  4.  0.  0
  libswscale      5.  5.100 /  5.  5.100
  libswresample   3.  5.100 /  3.  5.100
  libpostproc    55.  5.100 / 55.  5.100
Input #0, mov,mp4,m4a,3gp,3g2,mj2, from '/home/yb1025/Research/GRAIL/relabeler-irl/accelerate-skillDiscovery/generalized-hindsight/rlkit/../data/None-None-test/None-None-test_2022_04_17_12_15_40_0000--s-1/epoch1_0_temp.mp4':
  Metadata:
    major_brand     : isom
    minor_version   : 512
    compatible_brands: isomiso2mp41
    encoder         : Lavf58.76.100
  Duration: 00:00:13.92, start: 0.000000, bitrate: 1016 kb/s
    Stream #0:0(und): Video: mpeg4 (Simple Profile) (mp4v / 0x7634706D), yuv420p, 500x500 [SAR 1:1 DAR 1:1], 1015 kb/s, 24 fps, 24 tbr, 12288 tbn, 24 tbc (default)
    Metadata:
      handler_name    : VideoHandler
Stream mapping:
  Stream #0:0 -> #0:0 (mpeg4 (native) -> h264 (libx264))
Press [q] to stop, [?] for help
[libx264 @ 0x55d96a060e80] using SAR=1/1
[libx264 @ 0x55d96a060e80] using cpu capabilities: MMX2 SSE2Fast SSSE3 SSE4.2 AVX FMA3 BMI2 AVX2 AVX512
[libx264 @ 0x55d96a060e80] profile High, level 3.0
[libx264 @ 0x55d96a060e80] 264 - core 155 r2917 0a84d98 - H.264/MPEG-4 AVC codec - Copyleft 2003-2018 - http://www.videolan.org/x264.html - options: cabac=1 ref=3 deblock=1:0:0 analyse=0x3:0x113 me=hex subme=7 psy=1 psy_rd=1.00:0.00 mixed_ref=1 me_range=16 chroma_me=1 trellis=1 8x8dct=1 cqm=0 deadzone=21,11 fast_pskip=1 chroma_qp_offset=-2 threads=3 lookahead_threads=1 sliced_threads=0 nr=0 decimate=1 interlaced=0 bluray_compat=0 constrained_intra=0 bframes=3 b_pyramid=2 b_adapt=1 b_bias=0 direct=1 weightb=1 open_gop=0 weightp=2 keyint=250 keyint_min=24 scenecut=40 intra_refresh=0 rc_lookahead=40 rc=crf mbtree=1 crf=20.0 qcomp=0.60 qpmin=0 qpmax=69 qpstep=4 ip_ratio=1.40 aq=1:1.00
Output #0, mp4, to '/home/yb1025/Research/GRAIL/relabeler-irl/accelerate-skillDiscovery/generalized-hindsight/rlkit/../data/None-None-test/None-None-test_2022_04_17_12_15_40_0000--s-1/epoch1_0.mp4':
  Metadata:
    major_brand     : isom
    minor_version   : 512
    compatible_brands: isomiso2mp41
    encoder         : Lavf58.29.100
    Stream #0:0(und): Video: h264 (libx264) (avc1 / 0x31637661), yuv420p, 500x500 [SAR 1:1 DAR 1:1], q=-1--1, 24 fps, 12288 tbn, 24 tbc (default)
    Metadata:
      handler_name    : VideoHandler
      encoder         : Lavc58.54.100 libx264
    Side data:
      cpb: bitrate max/min/avg: 0/0/0 buffer size: 0 vbv_delay: -1
frame=  217 fps=0.0 q=25.0 size=       0kB time=00:00:06.95 bitrate=   0.1kbits/s speed=13.9x    frame=  334 fps=0.0 q=-1.0 Lsize=     129kB time=00:00:13.79 bitrate=  76.6kbits/s speed=16.3x    
video:124kB audio:0kB subtitle:0kB other streams:0kB global headers:0kB muxing overhead: 3.812923%
[libx264 @ 0x55d96a060e80] frame I:2     Avg QP:17.69  size: 32728
[libx264 @ 0x55d96a060e80] frame P:84    Avg QP:18.68  size:   474
[libx264 @ 0x55d96a060e80] frame B:248   Avg QP:25.88  size:    86
[libx264 @ 0x55d96a060e80] consecutive B-frames:  0.9%  0.0%  0.9% 98.2%
[libx264 @ 0x55d96a060e80] mb I  I16..4: 34.3% 13.6% 52.1%
[libx264 @ 0x55d96a060e80] mb P  I16..4:  0.3%  0.4%  0.1%  P16..4:  2.6%  0.2%  0.1%  0.0%  0.0%    skip:96.2%
[libx264 @ 0x55d96a060e80] mb B  I16..4:  0.9%  0.0%  0.0%  B16..8:  3.3%  0.0%  0.0%  direct: 0.0%  skip:95.7%  L0:62.2% L1:37.6% BI: 0.2%
[libx264 @ 0x55d96a060e80] 8x8 transform intra:12.1% inter:74.9%
[libx264 @ 0x55d96a060e80] coded y,uvDC,uvAC intra: 18.1% 41.9% 23.3% inter: 0.3% 0.5% 0.3%
[libx264 @ 0x55d96a060e80] i16 v,h,dc,p: 41% 45% 14%  0%
[libx264 @ 0x55d96a060e80] i8 v,h,dc,ddl,ddr,vr,hd,vl,hu: 22%  8% 60%  2%  1%  2%  1%  2%  2%
[libx264 @ 0x55d96a060e80] i4 v,h,dc,ddl,ddr,vr,hd,vl,hu: 26% 40% 15%  3%  2%  6%  2%  5%  2%
[libx264 @ 0x55d96a060e80] i8c dc,h,v,p: 35% 50% 13%  2%
[libx264 @ 0x55d96a060e80] Weighted P-Frames: Y:0.0% UV:0.0%
[libx264 @ 0x55d96a060e80] ref P L0: 78.1%  2.4% 15.3%  4.2%
[libx264 @ 0x55d96a060e80] ref B L0: 52.6% 46.7%  0.7%
[libx264 @ 0x55d96a060e80] ref B L1: 96.1%  3.9%
[libx264 @ 0x55d96a060e80] kb/s:72.72
OpenCV: FFMPEG: tag 0x44495658/'XVID' is not supported with codec id 12 and format 'mp4 / MP4 (MPEG-4 Part 14)'
OpenCV: FFMPEG: fallback to use tag 0x7634706d/'mp4v'
ffmpeg version 4.2.4-1ubuntu0.1 Copyright (c) 2000-2020 the FFmpeg developers
  built with gcc 9 (Ubuntu 9.3.0-10ubuntu2)
  configuration: --prefix=/usr --extra-version=1ubuntu0.1 --toolchain=hardened --libdir=/usr/lib/x86_64-linux-gnu --incdir=/usr/include/x86_64-linux-gnu --arch=amd64 --enable-gpl --disable-stripping --enable-avresample --disable-filter=resample --enable-avisynth --enable-gnutls --enable-ladspa --enable-libaom --enable-libass --enable-libbluray --enable-libbs2b --enable-libcaca --enable-libcdio --enable-libcodec2 --enable-libflite --enable-libfontconfig --enable-libfreetype --enable-libfribidi --enable-libgme --enable-libgsm --enable-libjack --enable-libmp3lame --enable-libmysofa --enable-libopenjpeg --enable-libopenmpt --enable-libopus --enable-libpulse --enable-librsvg --enable-librubberband --enable-libshine --enable-libsnappy --enable-libsoxr --enable-libspeex --enable-libssh --enable-libtheora --enable-libtwolame --enable-libvidstab --enable-libvorbis --enable-libvpx --enable-libwavpack --enable-libwebp --enable-libx265 --enable-libxml2 --enable-libxvid --enable-libzmq --enable-libzvbi --enable-lv2 --enable-omx --enable-openal --enable-opencl --enable-opengl --enable-sdl2 --enable-libdc1394 --enable-libdrm --enable-libiec61883 --enable-nvenc --enable-chromaprint --enable-frei0r --enable-libx264 --enable-shared
  libavutil      56. 31.100 / 56. 31.100
  libavcodec     58. 54.100 / 58. 54.100
  libavformat    58. 29.100 / 58. 29.100
  libavdevice    58.  8.100 / 58.  8.100
  libavfilter     7. 57.100 /  7. 57.100
  libavresample   4.  0.  0 /  4.  0.  0
  libswscale      5.  5.100 /  5.  5.100
  libswresample   3.  5.100 /  3.  5.100
  libpostproc    55.  5.100 / 55.  5.100
Input #0, mov,mp4,m4a,3gp,3g2,mj2, from '/home/yb1025/Research/GRAIL/relabeler-irl/accelerate-skillDiscovery/generalized-hindsight/rlkit/../data/None-None-test/None-None-test_2022_04_17_12_15_40_0000--s-1/epoch2_0_temp.mp4':
  Metadata:
    major_brand     : isom
    minor_version   : 512
    compatible_brands: isomiso2mp41
    encoder         : Lavf58.76.100
  Duration: 00:00:13.92, start: 0.000000, bitrate: 1016 kb/s
    Stream #0:0(und): Video: mpeg4 (Simple Profile) (mp4v / 0x7634706D), yuv420p, 500x500 [SAR 1:1 DAR 1:1], 1015 kb/s, 24 fps, 24 tbr, 12288 tbn, 24 tbc (default)
    Metadata:
      handler_name    : VideoHandler
Stream mapping:
  Stream #0:0 -> #0:0 (mpeg4 (native) -> h264 (libx264))
Press [q] to stop, [?] for help
[libx264 @ 0x55f9f5e33e40] using SAR=1/1
[libx264 @ 0x55f9f5e33e40] using cpu capabilities: MMX2 SSE2Fast SSSE3 SSE4.2 AVX FMA3 BMI2 AVX2 AVX512
[libx264 @ 0x55f9f5e33e40] profile High, level 3.0
[libx264 @ 0x55f9f5e33e40] 264 - core 155 r2917 0a84d98 - H.264/MPEG-4 AVC codec - Copyleft 2003-2018 - http://www.videolan.org/x264.html - options: cabac=1 ref=3 deblock=1:0:0 analyse=0x3:0x113 me=hex subme=7 psy=1 psy_rd=1.00:0.00 mixed_ref=1 me_range=16 chroma_me=1 trellis=1 8x8dct=1 cqm=0 deadzone=21,11 fast_pskip=1 chroma_qp_offset=-2 threads=3 lookahead_threads=1 sliced_threads=0 nr=0 decimate=1 interlaced=0 bluray_compat=0 constrained_intra=0 bframes=3 b_pyramid=2 b_adapt=1 b_bias=0 direct=1 weightb=1 open_gop=0 weightp=2 keyint=250 keyint_min=24 scenecut=40 intra_refresh=0 rc_lookahead=40 rc=crf mbtree=1 crf=20.0 qcomp=0.60 qpmin=0 qpmax=69 qpstep=4 ip_ratio=1.40 aq=1:1.00
Output #0, mp4, to '/home/yb1025/Research/GRAIL/relabeler-irl/accelerate-skillDiscovery/generalized-hindsight/rlkit/../data/None-None-test/None-None-test_2022_04_17_12_15_40_0000--s-1/epoch2_0.mp4':
  Metadata:
    major_brand     : isom
    minor_version   : 512
    compatible_brands: isomiso2mp41
    encoder         : Lavf58.29.100
    Stream #0:0(und): Video: h264 (libx264) (avc1 / 0x31637661), yuv420p, 500x500 [SAR 1:1 DAR 1:1], q=-1--1, 24 fps, 12288 tbn, 24 tbc (default)
    Metadata:
      handler_name    : VideoHandler
      encoder         : Lavc58.54.100 libx264
    Side data:
      cpb: bitrate max/min/avg: 0/0/0 buffer size: 0 vbv_delay: -1
frame=  224 fps=0.0 q=25.0 size=       0kB time=00:00:07.25 bitrate=   0.1kbits/s speed=14.4x    frame=  334 fps=0.0 q=-1.0 Lsize=     129kB time=00:00:13.79 bitrate=  76.4kbits/s speed=16.8x    
video:124kB audio:0kB subtitle:0kB other streams:0kB global headers:0kB muxing overhead: 3.820974%
[libx264 @ 0x55f9f5e33e40] frame I:2     Avg QP:17.74  size: 32646
[libx264 @ 0x55f9f5e33e40] frame P:84    Avg QP:18.73  size:   462
[libx264 @ 0x55f9f5e33e40] frame B:248   Avg QP:26.99  size:    89
[libx264 @ 0x55f9f5e33e40] consecutive B-frames:  0.9%  0.0%  0.9% 98.2%
[libx264 @ 0x55f9f5e33e40] mb I  I16..4: 34.3% 13.4% 52.3%
[libx264 @ 0x55f9f5e33e40] mb P  I16..4:  0.4%  0.2%  0.1%  P16..4:  2.6%  0.2%  0.1%  0.0%  0.0%    skip:96.4%
[libx264 @ 0x55f9f5e33e40] mb B  I16..4:  0.8%  0.3%  0.0%  B16..8:  3.3%  0.0%  0.0%  direct: 0.0%  skip:95.6%  L0:61.0% L1:38.8% BI: 0.2%
[libx264 @ 0x55f9f5e33e40] 8x8 transform intra:21.8% inter:73.1%
[libx264 @ 0x55f9f5e33e40] coded y,uvDC,uvAC intra: 17.3% 40.5% 21.0% inter: 0.3% 0.5% 0.3%
[libx264 @ 0x55f9f5e33e40] i16 v,h,dc,p: 38% 50% 12%  0%
[libx264 @ 0x55f9f5e33e40] i8 v,h,dc,ddl,ddr,vr,hd,vl,hu: 10%  4% 81%  1%  1%  1%  0%  1%  1%
[libx264 @ 0x55f9f5e33e40] i4 v,h,dc,ddl,ddr,vr,hd,vl,hu: 26% 40% 15%  3%  2%  6%  2%  5%  1%
[libx264 @ 0x55f9f5e33e40] i8c dc,h,v,p: 39% 48% 11%  2%
[libx264 @ 0x55f9f5e33e40] Weighted P-Frames: Y:0.0% UV:0.0%
[libx264 @ 0x55f9f5e33e40] ref P L0: 81.1%  2.6% 13.6%  2.7%
[libx264 @ 0x55f9f5e33e40] ref B L0: 55.2% 44.1%  0.7%
[libx264 @ 0x55f9f5e33e40] ref B L1: 96.0%  4.0%
[libx264 @ 0x55f9f5e33e40] kb/s:72.57
OpenCV: FFMPEG: tag 0x44495658/'XVID' is not supported with codec id 12 and format 'mp4 / MP4 (MPEG-4 Part 14)'
OpenCV: FFMPEG: fallback to use tag 0x7634706d/'mp4v'
ffmpeg version 4.2.4-1ubuntu0.1 Copyright (c) 2000-2020 the FFmpeg developers
  built with gcc 9 (Ubuntu 9.3.0-10ubuntu2)
  configuration: --prefix=/usr --extra-version=1ubuntu0.1 --toolchain=hardened --libdir=/usr/lib/x86_64-linux-gnu --incdir=/usr/include/x86_64-linux-gnu --arch=amd64 --enable-gpl --disable-stripping --enable-avresample --disable-filter=resample --enable-avisynth --enable-gnutls --enable-ladspa --enable-libaom --enable-libass --enable-libbluray --enable-libbs2b --enable-libcaca --enable-libcdio --enable-libcodec2 --enable-libflite --enable-libfontconfig --enable-libfreetype --enable-libfribidi --enable-libgme --enable-libgsm --enable-libjack --enable-libmp3lame --enable-libmysofa --enable-libopenjpeg --enable-libopenmpt --enable-libopus --enable-libpulse --enable-librsvg --enable-librubberband --enable-libshine --enable-libsnappy --enable-libsoxr --enable-libspeex --enable-libssh --enable-libtheora --enable-libtwolame --enable-libvidstab --enable-libvorbis --enable-libvpx --enable-libwavpack --enable-libwebp --enable-libx265 --enable-libxml2 --enable-libxvid --enable-libzmq --enable-libzvbi --enable-lv2 --enable-omx --enable-openal --enable-opencl --enable-opengl --enable-sdl2 --enable-libdc1394 --enable-libdrm --enable-libiec61883 --enable-nvenc --enable-chromaprint --enable-frei0r --enable-libx264 --enable-shared
  libavutil      56. 31.100 / 56. 31.100
  libavcodec     58. 54.100 / 58. 54.100
  libavformat    58. 29.100 / 58. 29.100
  libavdevice    58.  8.100 / 58.  8.100
  libavfilter     7. 57.100 /  7. 57.100
  libavresample   4.  0.  0 /  4.  0.  0
  libswscale      5.  5.100 /  5.  5.100
  libswresample   3.  5.100 /  3.  5.100
  libpostproc    55.  5.100 / 55.  5.100
Input #0, mov,mp4,m4a,3gp,3g2,mj2, from '/home/yb1025/Research/GRAIL/relabeler-irl/accelerate-skillDiscovery/generalized-hindsight/rlkit/../data/None-None-test/None-None-test_2022_04_17_12_15_40_0000--s-1/epoch3_0_temp.mp4':
  Metadata:
    major_brand     : isom
    minor_version   : 512
    compatible_brands: isomiso2mp41
    encoder         : Lavf58.76.100
  Duration: 00:00:13.92, start: 0.000000, bitrate: 1014 kb/s
    Stream #0:0(und): Video: mpeg4 (Simple Profile) (mp4v / 0x7634706D), yuv420p, 500x500 [SAR 1:1 DAR 1:1], 1013 kb/s, 24 fps, 24 tbr, 12288 tbn, 24 tbc (default)
    Metadata:
      handler_name    : VideoHandler
Stream mapping:
  Stream #0:0 -> #0:0 (mpeg4 (native) -> h264 (libx264))
Press [q] to stop, [?] for help
[libx264 @ 0x5605ab694f00] using SAR=1/1
[libx264 @ 0x5605ab694f00] using cpu capabilities: MMX2 SSE2Fast SSSE3 SSE4.2 AVX FMA3 BMI2 AVX2 AVX512
[libx264 @ 0x5605ab694f00] profile High, level 3.0
[libx264 @ 0x5605ab694f00] 264 - core 155 r2917 0a84d98 - H.264/MPEG-4 AVC codec - Copyleft 2003-2018 - http://www.videolan.org/x264.html - options: cabac=1 ref=3 deblock=1:0:0 analyse=0x3:0x113 me=hex subme=7 psy=1 psy_rd=1.00:0.00 mixed_ref=1 me_range=16 chroma_me=1 trellis=1 8x8dct=1 cqm=0 deadzone=21,11 fast_pskip=1 chroma_qp_offset=-2 threads=3 lookahead_threads=1 sliced_threads=0 nr=0 decimate=1 interlaced=0 bluray_compat=0 constrained_intra=0 bframes=3 b_pyramid=2 b_adapt=1 b_bias=0 direct=1 weightb=1 open_gop=0 weightp=2 keyint=250 keyint_min=24 scenecut=40 intra_refresh=0 rc_lookahead=40 rc=crf mbtree=1 crf=20.0 qcomp=0.60 qpmin=0 qpmax=69 qpstep=4 ip_ratio=1.40 aq=1:1.00
Output #0, mp4, to '/home/yb1025/Research/GRAIL/relabeler-irl/accelerate-skillDiscovery/generalized-hindsight/rlkit/../data/None-None-test/None-None-test_2022_04_17_12_15_40_0000--s-1/epoch3_0.mp4':
  Metadata:
    major_brand     : isom
    minor_version   : 512
    compatible_brands: isomiso2mp41
    encoder         : Lavf58.29.100
    Stream #0:0(und): Video: h264 (libx264) (avc1 / 0x31637661), yuv420p, 500x500 [SAR 1:1 DAR 1:1], q=-1--1, 24 fps, 12288 tbn, 24 tbc (default)
    Metadata:
      handler_name    : VideoHandler
      encoder         : Lavc58.54.100 libx264
    Side data:
      cpb: bitrate max/min/avg: 0/0/0 buffer size: 0 vbv_delay: -1
frame=  221 fps=0.0 q=25.0 size=       0kB time=00:00:07.12 bitrate=   0.1kbits/s speed=14.2x    frame=  334 fps=0.0 q=-1.0 Lsize=     125kB time=00:00:13.79 bitrate=  74.1kbits/s speed=16.4x    
video:120kB audio:0kB subtitle:0kB other streams:0kB global headers:0kB muxing overhead: 3.943699%
[libx264 @ 0x5605ab694f00] frame I:2     Avg QP:17.74  size: 32862
[libx264 @ 0x5605ab694f00] frame P:84    Avg QP:21.71  size:   462
[libx264 @ 0x5605ab694f00] frame B:248   Avg QP:27.15  size:    72
[libx264 @ 0x5605ab694f00] consecutive B-frames:  0.6%  0.6%  1.8% 97.0%
[libx264 @ 0x5605ab694f00] mb I  I16..4: 33.2% 13.9% 52.9%
[libx264 @ 0x5605ab694f00] mb P  I16..4:  0.4%  0.2%  0.1%  P16..4:  2.5%  0.1%  0.2%  0.0%  0.0%    skip:96.5%
[libx264 @ 0x5605ab694f00] mb B  I16..4:  0.2%  0.1%  0.0%  B16..8:  4.7%  0.0%  0.0%  direct: 0.0%  skip:95.0%  L0:64.2% L1:35.6% BI: 0.1%
[libx264 @ 0x5605ab694f00] 8x8 transform intra:17.5% inter:71.7%
[libx264 @ 0x5605ab694f00] coded y,uvDC,uvAC intra: 28.8% 56.1% 34.7% inter: 0.3% 0.5% 0.3%
[libx264 @ 0x5605ab694f00] i16 v,h,dc,p: 36% 60%  4%  0%
[libx264 @ 0x5605ab694f00] i8 v,h,dc,ddl,ddr,vr,hd,vl,hu: 22% 10% 57%  2%  1%  2%  0%  2%  3%
[libx264 @ 0x5605ab694f00] i4 v,h,dc,ddl,ddr,vr,hd,vl,hu: 26% 40% 15%  3%  2%  6%  2%  5%  2%
[libx264 @ 0x5605ab694f00] i8c dc,h,v,p: 28% 51% 18%  4%
[libx264 @ 0x5605ab694f00] Weighted P-Frames: Y:0.0% UV:0.0%
[libx264 @ 0x5605ab694f00] ref P L0: 81.4%  3.2% 11.9%  3.5%
[libx264 @ 0x5605ab694f00] ref B L0: 49.8% 49.6%  0.6%
[libx264 @ 0x5605ab694f00] ref B L1: 98.0%  2.0%
[libx264 @ 0x5605ab694f00] kb/s:70.30
OpenCV: FFMPEG: tag 0x44495658/'XVID' is not supported with codec id 12 and format 'mp4 / MP4 (MPEG-4 Part 14)'
OpenCV: FFMPEG: fallback to use tag 0x7634706d/'mp4v'
ffmpeg version 4.2.4-1ubuntu0.1 Copyright (c) 2000-2020 the FFmpeg developers
  built with gcc 9 (Ubuntu 9.3.0-10ubuntu2)
  configuration: --prefix=/usr --extra-version=1ubuntu0.1 --toolchain=hardened --libdir=/usr/lib/x86_64-linux-gnu --incdir=/usr/include/x86_64-linux-gnu --arch=amd64 --enable-gpl --disable-stripping --enable-avresample --disable-filter=resample --enable-avisynth --enable-gnutls --enable-ladspa --enable-libaom --enable-libass --enable-libbluray --enable-libbs2b --enable-libcaca --enable-libcdio --enable-libcodec2 --enable-libflite --enable-libfontconfig --enable-libfreetype --enable-libfribidi --enable-libgme --enable-libgsm --enable-libjack --enable-libmp3lame --enable-libmysofa --enable-libopenjpeg --enable-libopenmpt --enable-libopus --enable-libpulse --enable-librsvg --enable-librubberband --enable-libshine --enable-libsnappy --enable-libsoxr --enable-libspeex --enable-libssh --enable-libtheora --enable-libtwolame --enable-libvidstab --enable-libvorbis --enable-libvpx --enable-libwavpack --enable-libwebp --enable-libx265 --enable-libxml2 --enable-libxvid --enable-libzmq --enable-libzvbi --enable-lv2 --enable-omx --enable-openal --enable-opencl --enable-opengl --enable-sdl2 --enable-libdc1394 --enable-libdrm --enable-libiec61883 --enable-nvenc --enable-chromaprint --enable-frei0r --enable-libx264 --enable-shared
  libavutil      56. 31.100 / 56. 31.100
  libavcodec     58. 54.100 / 58. 54.100
  libavformat    58. 29.100 / 58. 29.100
  libavdevice    58.  8.100 / 58.  8.100
  libavfilter     7. 57.100 /  7. 57.100
  libavresample   4.  0.  0 /  4.  0.  0
  libswscale      5.  5.100 /  5.  5.100
  libswresample   3.  5.100 /  3.  5.100
  libpostproc    55.  5.100 / 55.  5.100
Input #0, mov,mp4,m4a,3gp,3g2,mj2, from '/home/yb1025/Research/GRAIL/relabeler-irl/accelerate-skillDiscovery/generalized-hindsight/rlkit/../data/None-None-test/None-None-test_2022_04_17_12_15_40_0000--s-1/epoch4_0_temp.mp4':
  Metadata:
    major_brand     : isom
    minor_version   : 512
    compatible_brands: isomiso2mp41
    encoder         : Lavf58.76.100
  Duration: 00:00:13.92, start: 0.000000, bitrate: 1016 kb/s
    Stream #0:0(und): Video: mpeg4 (Simple Profile) (mp4v / 0x7634706D), yuv420p, 500x500 [SAR 1:1 DAR 1:1], 1015 kb/s, 24 fps, 24 tbr, 12288 tbn, 24 tbc (default)
    Metadata:
      handler_name    : VideoHandler
Stream mapping:
  Stream #0:0 -> #0:0 (mpeg4 (native) -> h264 (libx264))
Press [q] to stop, [?] for help
[libx264 @ 0x5616f79e4b80] using SAR=1/1
[libx264 @ 0x5616f79e4b80] using cpu capabilities: MMX2 SSE2Fast SSSE3 SSE4.2 AVX FMA3 BMI2 AVX2 AVX512
[libx264 @ 0x5616f79e4b80] profile High, level 3.0
[libx264 @ 0x5616f79e4b80] 264 - core 155 r2917 0a84d98 - H.264/MPEG-4 AVC codec - Copyleft 2003-2018 - http://www.videolan.org/x264.html - options: cabac=1 ref=3 deblock=1:0:0 analyse=0x3:0x113 me=hex subme=7 psy=1 psy_rd=1.00:0.00 mixed_ref=1 me_range=16 chroma_me=1 trellis=1 8x8dct=1 cqm=0 deadzone=21,11 fast_pskip=1 chroma_qp_offset=-2 threads=3 lookahead_threads=1 sliced_threads=0 nr=0 decimate=1 interlaced=0 bluray_compat=0 constrained_intra=0 bframes=3 b_pyramid=2 b_adapt=1 b_bias=0 direct=1 weightb=1 open_gop=0 weightp=2 keyint=250 keyint_min=24 scenecut=40 intra_refresh=0 rc_lookahead=40 rc=crf mbtree=1 crf=20.0 qcomp=0.60 qpmin=0 qpmax=69 qpstep=4 ip_ratio=1.40 aq=1:1.00
Output #0, mp4, to '/home/yb1025/Research/GRAIL/relabeler-irl/accelerate-skillDiscovery/generalized-hindsight/rlkit/../data/None-None-test/None-None-test_2022_04_17_12_15_40_0000--s-1/epoch4_0.mp4':
  Metadata:
    major_brand     : isom
    minor_version   : 512
    compatible_brands: isomiso2mp41
    encoder         : Lavf58.29.100
    Stream #0:0(und): Video: h264 (libx264) (avc1 / 0x31637661), yuv420p, 500x500 [SAR 1:1 DAR 1:1], q=-1--1, 24 fps, 12288 tbn, 24 tbc (default)
    Metadata:
      handler_name    : VideoHandler
      encoder         : Lavc58.54.100 libx264
    Side data:
      cpb: bitrate max/min/avg: 0/0/0 buffer size: 0 vbv_delay: -1
frame=  225 fps=0.0 q=25.0 size=       0kB time=00:00:07.29 bitrate=   0.1kbits/s speed=14.5x    frame=  334 fps=0.0 q=-1.0 Lsize=     127kB time=00:00:13.79 bitrate=  75.3kbits/s speed=16.8x    
video:122kB audio:0kB subtitle:0kB other streams:0kB global headers:0kB muxing overhead: 3.880342%
[libx264 @ 0x5616f79e4b80] frame I:2     Avg QP:17.70  size: 32606
[libx264 @ 0x5616f79e4b80] frame P:84    Avg QP:19.58  size:   451
[libx264 @ 0x5616f79e4b80] frame B:248   Avg QP:26.24  size:    86
[libx264 @ 0x5616f79e4b80] consecutive B-frames:  0.9%  0.0%  0.9% 98.2%
[libx264 @ 0x5616f79e4b80] mb I  I16..4: 34.2% 13.9% 51.9%
[libx264 @ 0x5616f79e4b80] mb P  I16..4:  0.4%  0.2%  0.1%  P16..4:  2.6%  0.2%  0.1%  0.0%  0.0%    skip:96.4%
[libx264 @ 0x5616f79e4b80] mb B  I16..4:  0.9%  0.0%  0.0%  B16..8:  3.2%  0.0%  0.0%  direct: 0.0%  skip:95.7%  L0:61.0% L1:38.8% BI: 0.1%
[libx264 @ 0x5616f79e4b80] 8x8 transform intra:9.0% inter:74.3%
[libx264 @ 0x5616f79e4b80] coded y,uvDC,uvAC intra: 18.8% 44.4% 23.5% inter: 0.3% 0.5% 0.3%
[libx264 @ 0x5616f79e4b80] i16 v,h,dc,p: 36% 53% 10%  0%
[libx264 @ 0x5616f79e4b80] i8 v,h,dc,ddl,ddr,vr,hd,vl,hu: 27% 11% 49%  4%  1%  2%  1%  3%  3%
[libx264 @ 0x5616f79e4b80] i4 v,h,dc,ddl,ddr,vr,hd,vl,hu: 26% 40% 15%  3%  2%  6%  2%  5%  1%
[libx264 @ 0x5616f79e4b80] i8c dc,h,v,p: 33% 50% 14%  3%
[libx264 @ 0x5616f79e4b80] Weighted P-Frames: Y:0.0% UV:0.0%
[libx264 @ 0x5616f79e4b80] ref P L0: 79.2%  2.6% 15.0%  3.2%
[libx264 @ 0x5616f79e4b80] ref B L0: 57.2% 42.2%  0.6%
[libx264 @ 0x5616f79e4b80] ref B L1: 95.9%  4.1%
[libx264 @ 0x5616f79e4b80] kb/s:71.45
OpenCV: FFMPEG: tag 0x44495658/'XVID' is not supported with codec id 12 and format 'mp4 / MP4 (MPEG-4 Part 14)'
OpenCV: FFMPEG: fallback to use tag 0x7634706d/'mp4v'
ffmpeg version 4.2.4-1ubuntu0.1 Copyright (c) 2000-2020 the FFmpeg developers
  built with gcc 9 (Ubuntu 9.3.0-10ubuntu2)
  configuration: --prefix=/usr --extra-version=1ubuntu0.1 --toolchain=hardened --libdir=/usr/lib/x86_64-linux-gnu --incdir=/usr/include/x86_64-linux-gnu --arch=amd64 --enable-gpl --disable-stripping --enable-avresample --disable-filter=resample --enable-avisynth --enable-gnutls --enable-ladspa --enable-libaom --enable-libass --enable-libbluray --enable-libbs2b --enable-libcaca --enable-libcdio --enable-libcodec2 --enable-libflite --enable-libfontconfig --enable-libfreetype --enable-libfribidi --enable-libgme --enable-libgsm --enable-libjack --enable-libmp3lame --enable-libmysofa --enable-libopenjpeg --enable-libopenmpt --enable-libopus --enable-libpulse --enable-librsvg --enable-librubberband --enable-libshine --enable-libsnappy --enable-libsoxr --enable-libspeex --enable-libssh --enable-libtheora --enable-libtwolame --enable-libvidstab --enable-libvorbis --enable-libvpx --enable-libwavpack --enable-libwebp --enable-libx265 --enable-libxml2 --enable-libxvid --enable-libzmq --enable-libzvbi --enable-lv2 --enable-omx --enable-openal --enable-opencl --enable-opengl --enable-sdl2 --enable-libdc1394 --enable-libdrm --enable-libiec61883 --enable-nvenc --enable-chromaprint --enable-frei0r --enable-libx264 --enable-shared
  libavutil      56. 31.100 / 56. 31.100
  libavcodec     58. 54.100 / 58. 54.100
  libavformat    58. 29.100 / 58. 29.100
  libavdevice    58.  8.100 / 58.  8.100
  libavfilter     7. 57.100 /  7. 57.100
  libavresample   4.  0.  0 /  4.  0.  0
  libswscale      5.  5.100 /  5.  5.100
  libswresample   3.  5.100 /  3.  5.100
  libpostproc    55.  5.100 / 55.  5.100
Input #0, mov,mp4,m4a,3gp,3g2,mj2, from '/home/yb1025/Research/GRAIL/relabeler-irl/accelerate-skillDiscovery/generalized-hindsight/rlkit/../data/None-None-test/None-None-test_2022_04_17_12_15_40_0000--s-1/epoch5_0_temp.mp4':
  Metadata:
    major_brand     : isom
    minor_version   : 512
    compatible_brands: isomiso2mp41
    encoder         : Lavf58.76.100
  Duration: 00:00:13.92, start: 0.000000, bitrate: 1012 kb/s
    Stream #0:0(und): Video: mpeg4 (Simple Profile) (mp4v / 0x7634706D), yuv420p, 500x500 [SAR 1:1 DAR 1:1], 1011 kb/s, 24 fps, 24 tbr, 12288 tbn, 24 tbc (default)
    Metadata:
      handler_name    : VideoHandler
Stream mapping:
  Stream #0:0 -> #0:0 (mpeg4 (native) -> h264 (libx264))
Press [q] to stop, [?] for help
[libx264 @ 0x55da3eb01e80] using SAR=1/1
[libx264 @ 0x55da3eb01e80] using cpu capabilities: MMX2 SSE2Fast SSSE3 SSE4.2 AVX FMA3 BMI2 AVX2 AVX512
[libx264 @ 0x55da3eb01e80] profile High, level 3.0
[libx264 @ 0x55da3eb01e80] 264 - core 155 r2917 0a84d98 - H.264/MPEG-4 AVC codec - Copyleft 2003-2018 - http://www.videolan.org/x264.html - options: cabac=1 ref=3 deblock=1:0:0 analyse=0x3:0x113 me=hex subme=7 psy=1 psy_rd=1.00:0.00 mixed_ref=1 me_range=16 chroma_me=1 trellis=1 8x8dct=1 cqm=0 deadzone=21,11 fast_pskip=1 chroma_qp_offset=-2 threads=3 lookahead_threads=1 sliced_threads=0 nr=0 decimate=1 interlaced=0 bluray_compat=0 constrained_intra=0 bframes=3 b_pyramid=2 b_adapt=1 b_bias=0 direct=1 weightb=1 open_gop=0 weightp=2 keyint=250 keyint_min=24 scenecut=40 intra_refresh=0 rc_lookahead=40 rc=crf mbtree=1 crf=20.0 qcomp=0.60 qpmin=0 qpmax=69 qpstep=4 ip_ratio=1.40 aq=1:1.00
Output #0, mp4, to '/home/yb1025/Research/GRAIL/relabeler-irl/accelerate-skillDiscovery/generalized-hindsight/rlkit/../data/None-None-test/None-None-test_2022_04_17_12_15_40_0000--s-1/epoch5_0.mp4':
  Metadata:
    major_brand     : isom
    minor_version   : 512
    compatible_brands: isomiso2mp41
    encoder         : Lavf58.29.100
    Stream #0:0(und): Video: h264 (libx264) (avc1 / 0x31637661), yuv420p, 500x500 [SAR 1:1 DAR 1:1], q=-1--1, 24 fps, 12288 tbn, 24 tbc (default)
    Metadata:
      handler_name    : VideoHandler
      encoder         : Lavc58.54.100 libx264
    Side data:
      cpb: bitrate max/min/avg: 0/0/0 buffer size: 0 vbv_delay: -1
frame=  219 fps=0.0 q=25.0 size=       0kB time=00:00:07.04 bitrate=   0.1kbits/s speed=13.9x    frame=  334 fps=0.0 q=-1.0 Lsize=     128kB time=00:00:13.79 bitrate=  76.3kbits/s speed=16.4x    
video:124kB audio:0kB subtitle:0kB other streams:0kB global headers:0kB muxing overhead: 3.830631%
[libx264 @ 0x55da3eb01e80] frame I:2     Avg QP:17.77  size: 32464
[libx264 @ 0x55da3eb01e80] frame P:84    Avg QP:21.46  size:   470
[libx264 @ 0x55da3eb01e80] frame B:248   Avg QP:23.23  size:    87
[libx264 @ 0x55da3eb01e80] consecutive B-frames:  0.6%  0.6%  1.8% 97.0%
[libx264 @ 0x55da3eb01e80] mb I  I16..4: 33.8% 13.8% 52.4%
[libx264 @ 0x55da3eb01e80] mb P  I16..4:  0.3%  0.4%  0.1%  P16..4:  2.4%  0.2%  0.2%  0.0%  0.0%    skip:96.4%
[libx264 @ 0x55da3eb01e80] mb B  I16..4:  0.7%  0.4%  0.0%  B16..8:  3.4%  0.0%  0.0%  direct: 0.1%  skip:95.4%  L0:60.8% L1:39.0% BI: 0.2%
[libx264 @ 0x55da3eb01e80] 8x8 transform intra:28.2% inter:71.9%
[libx264 @ 0x55da3eb01e80] coded y,uvDC,uvAC intra: 17.0% 36.9% 21.3% inter: 0.3% 0.6% 0.3%
[libx264 @ 0x55da3eb01e80] i16 v,h,dc,p: 44% 49%  7%  0%
[libx264 @ 0x55da3eb01e80] i8 v,h,dc,ddl,ddr,vr,hd,vl,hu:  9%  6% 81%  1%  0%  1%  0%  1%  1%
[libx264 @ 0x55da3eb01e80] i4 v,h,dc,ddl,ddr,vr,hd,vl,hu: 27% 40% 15%  2%  2%  5%  2%  5%  1%
[libx264 @ 0x55da3eb01e80] i8c dc,h,v,p: 35% 50% 13%  2%
[libx264 @ 0x55da3eb01e80] Weighted P-Frames: Y:0.0% UV:0.0%
[libx264 @ 0x55da3eb01e80] ref P L0: 82.3%  3.7% 10.7%  3.3%
[libx264 @ 0x55da3eb01e80] ref B L0: 53.6% 45.2%  1.2%
[libx264 @ 0x55da3eb01e80] ref B L1: 97.8%  2.2%
[libx264 @ 0x55da3eb01e80] kb/s:72.39
OpenCV: FFMPEG: tag 0x44495658/'XVID' is not supported with codec id 12 and format 'mp4 / MP4 (MPEG-4 Part 14)'
OpenCV: FFMPEG: fallback to use tag 0x7634706d/'mp4v'
ffmpeg version 4.2.4-1ubuntu0.1 Copyright (c) 2000-2020 the FFmpeg developers
  built with gcc 9 (Ubuntu 9.3.0-10ubuntu2)
  configuration: --prefix=/usr --extra-version=1ubuntu0.1 --toolchain=hardened --libdir=/usr/lib/x86_64-linux-gnu --incdir=/usr/include/x86_64-linux-gnu --arch=amd64 --enable-gpl --disable-stripping --enable-avresample --disable-filter=resample --enable-avisynth --enable-gnutls --enable-ladspa --enable-libaom --enable-libass --enable-libbluray --enable-libbs2b --enable-libcaca --enable-libcdio --enable-libcodec2 --enable-libflite --enable-libfontconfig --enable-libfreetype --enable-libfribidi --enable-libgme --enable-libgsm --enable-libjack --enable-libmp3lame --enable-libmysofa --enable-libopenjpeg --enable-libopenmpt --enable-libopus --enable-libpulse --enable-librsvg --enable-librubberband --enable-libshine --enable-libsnappy --enable-libsoxr --enable-libspeex --enable-libssh --enable-libtheora --enable-libtwolame --enable-libvidstab --enable-libvorbis --enable-libvpx --enable-libwavpack --enable-libwebp --enable-libx265 --enable-libxml2 --enable-libxvid --enable-libzmq --enable-libzvbi --enable-lv2 --enable-omx --enable-openal --enable-opencl --enable-opengl --enable-sdl2 --enable-libdc1394 --enable-libdrm --enable-libiec61883 --enable-nvenc --enable-chromaprint --enable-frei0r --enable-libx264 --enable-shared
  libavutil      56. 31.100 / 56. 31.100
  libavcodec     58. 54.100 / 58. 54.100
  libavformat    58. 29.100 / 58. 29.100
  libavdevice    58.  8.100 / 58.  8.100
  libavfilter     7. 57.100 /  7. 57.100
  libavresample   4.  0.  0 /  4.  0.  0
  libswscale      5.  5.100 /  5.  5.100
  libswresample   3.  5.100 /  3.  5.100
  libpostproc    55.  5.100 / 55.  5.100
Input #0, mov,mp4,m4a,3gp,3g2,mj2, from '/home/yb1025/Research/GRAIL/relabeler-irl/accelerate-skillDiscovery/generalized-hindsight/rlkit/../data/None-None-test/None-None-test_2022_04_17_12_15_40_0000--s-1/epoch6_0_temp.mp4':
  Metadata:
    major_brand     : isom
    minor_version   : 512
    compatible_brands: isomiso2mp41
    encoder         : Lavf58.76.100
  Duration: 00:00:13.92, start: 0.000000, bitrate: 1009 kb/s
    Stream #0:0(und): Video: mpeg4 (Simple Profile) (mp4v / 0x7634706D), yuv420p, 500x500 [SAR 1:1 DAR 1:1], 1007 kb/s, 24 fps, 24 tbr, 12288 tbn, 24 tbc (default)
    Metadata:
      handler_name    : VideoHandler
Stream mapping:
  Stream #0:0 -> #0:0 (mpeg4 (native) -> h264 (libx264))
Press [q] to stop, [?] for help
[libx264 @ 0x55955e5ebe40] using SAR=1/1
[libx264 @ 0x55955e5ebe40] using cpu capabilities: MMX2 SSE2Fast SSSE3 SSE4.2 AVX FMA3 BMI2 AVX2 AVX512
[libx264 @ 0x55955e5ebe40] profile High, level 3.0
[libx264 @ 0x55955e5ebe40] 264 - core 155 r2917 0a84d98 - H.264/MPEG-4 AVC codec - Copyleft 2003-2018 - http://www.videolan.org/x264.html - options: cabac=1 ref=3 deblock=1:0:0 analyse=0x3:0x113 me=hex subme=7 psy=1 psy_rd=1.00:0.00 mixed_ref=1 me_range=16 chroma_me=1 trellis=1 8x8dct=1 cqm=0 deadzone=21,11 fast_pskip=1 chroma_qp_offset=-2 threads=3 lookahead_threads=1 sliced_threads=0 nr=0 decimate=1 interlaced=0 bluray_compat=0 constrained_intra=0 bframes=3 b_pyramid=2 b_adapt=1 b_bias=0 direct=1 weightb=1 open_gop=0 weightp=2 keyint=250 keyint_min=24 scenecut=40 intra_refresh=0 rc_lookahead=40 rc=crf mbtree=1 crf=20.0 qcomp=0.60 qpmin=0 qpmax=69 qpstep=4 ip_ratio=1.40 aq=1:1.00
Output #0, mp4, to '/home/yb1025/Research/GRAIL/relabeler-irl/accelerate-skillDiscovery/generalized-hindsight/rlkit/../data/None-None-test/None-None-test_2022_04_17_12_15_40_0000--s-1/epoch6_0.mp4':
  Metadata:
    major_brand     : isom
    minor_version   : 512
    compatible_brands: isomiso2mp41
    encoder         : Lavf58.29.100
    Stream #0:0(und): Video: h264 (libx264) (avc1 / 0x31637661), yuv420p, 500x500 [SAR 1:1 DAR 1:1], q=-1--1, 24 fps, 12288 tbn, 24 tbc (default)
    Metadata:
      handler_name    : VideoHandler
      encoder         : Lavc58.54.100 libx264
    Side data:
      cpb: bitrate max/min/avg: 0/0/0 buffer size: 0 vbv_delay: -1
frame=  217 fps=0.0 q=25.0 size=       0kB time=00:00:06.95 bitrate=   0.1kbits/s speed=13.9x    frame=  334 fps=0.0 q=-1.0 Lsize=     129kB time=00:00:13.79 bitrate=  76.6kbits/s speed=16.5x    
video:124kB audio:0kB subtitle:0kB other streams:0kB global headers:0kB muxing overhead: 3.814992%
[libx264 @ 0x55955e5ebe40] frame I:2     Avg QP:17.74  size: 32686
[libx264 @ 0x55955e5ebe40] frame P:84    Avg QP:21.44  size:   490
[libx264 @ 0x55955e5ebe40] frame B:248   Avg QP:28.97  size:    80
[libx264 @ 0x55955e5ebe40] consecutive B-frames:  0.6%  0.6%  1.8% 97.0%
[libx264 @ 0x55955e5ebe40] mb I  I16..4: 33.9% 13.4% 52.7%
[libx264 @ 0x55955e5ebe40] mb P  I16..4:  0.4%  0.3%  0.1%  P16..4:  2.7%  0.2%  0.2%  0.0%  0.0%    skip:96.2%
[libx264 @ 0x55955e5ebe40] mb B  I16..4:  0.2%  0.4%  0.0%  B16..8:  3.9%  0.1%  0.0%  direct: 0.0%  skip:95.3%  L0:60.1% L1:39.8% BI: 0.1%
[libx264 @ 0x55955e5ebe40] 8x8 transform intra:36.7% inter:75.0%
[libx264 @ 0x55955e5ebe40] coded y,uvDC,uvAC intra: 21.2% 42.2% 25.7% inter: 0.3% 0.5% 0.3%
[libx264 @ 0x55955e5ebe40] i16 v,h,dc,p: 31% 61%  8%  0%
[libx264 @ 0x55955e5ebe40] i8 v,h,dc,ddl,ddr,vr,hd,vl,hu:  8%  9% 80%  1%  0%  1%  0%  1%  1%
[libx264 @ 0x55955e5ebe40] i4 v,h,dc,ddl,ddr,vr,hd,vl,hu: 27% 40% 15%  2%  3%  6%  2%  5%  1%
[libx264 @ 0x55955e5ebe40] i8c dc,h,v,p: 32% 54% 12%  3%
[libx264 @ 0x55955e5ebe40] Weighted P-Frames: Y:0.0% UV:0.0%
[libx264 @ 0x55955e5ebe40] ref P L0: 81.0%  3.0% 12.5%  3.6%
[libx264 @ 0x55955e5ebe40] ref B L0: 57.4% 41.8%  0.7%
[libx264 @ 0x55955e5ebe40] ref B L1: 98.3%  1.7%
[libx264 @ 0x55955e5ebe40] kb/s:72.68
OpenCV: FFMPEG: tag 0x44495658/'XVID' is not supported with codec id 12 and format 'mp4 / MP4 (MPEG-4 Part 14)'
OpenCV: FFMPEG: fallback to use tag 0x7634706d/'mp4v'
ffmpeg version 4.2.4-1ubuntu0.1 Copyright (c) 2000-2020 the FFmpeg developers
  built with gcc 9 (Ubuntu 9.3.0-10ubuntu2)
  configuration: --prefix=/usr --extra-version=1ubuntu0.1 --toolchain=hardened --libdir=/usr/lib/x86_64-linux-gnu --incdir=/usr/include/x86_64-linux-gnu --arch=amd64 --enable-gpl --disable-stripping --enable-avresample --disable-filter=resample --enable-avisynth --enable-gnutls --enable-ladspa --enable-libaom --enable-libass --enable-libbluray --enable-libbs2b --enable-libcaca --enable-libcdio --enable-libcodec2 --enable-libflite --enable-libfontconfig --enable-libfreetype --enable-libfribidi --enable-libgme --enable-libgsm --enable-libjack --enable-libmp3lame --enable-libmysofa --enable-libopenjpeg --enable-libopenmpt --enable-libopus --enable-libpulse --enable-librsvg --enable-librubberband --enable-libshine --enable-libsnappy --enable-libsoxr --enable-libspeex --enable-libssh --enable-libtheora --enable-libtwolame --enable-libvidstab --enable-libvorbis --enable-libvpx --enable-libwavpack --enable-libwebp --enable-libx265 --enable-libxml2 --enable-libxvid --enable-libzmq --enable-libzvbi --enable-lv2 --enable-omx --enable-openal --enable-opencl --enable-opengl --enable-sdl2 --enable-libdc1394 --enable-libdrm --enable-libiec61883 --enable-nvenc --enable-chromaprint --enable-frei0r --enable-libx264 --enable-shared
  libavutil      56. 31.100 / 56. 31.100
  libavcodec     58. 54.100 / 58. 54.100
  libavformat    58. 29.100 / 58. 29.100
  libavdevice    58.  8.100 / 58.  8.100
  libavfilter     7. 57.100 /  7. 57.100
  libavresample   4.  0.  0 /  4.  0.  0
  libswscale      5.  5.100 /  5.  5.100
  libswresample   3.  5.100 /  3.  5.100
  libpostproc    55.  5.100 / 55.  5.100
Input #0, mov,mp4,m4a,3gp,3g2,mj2, from '/home/yb1025/Research/GRAIL/relabeler-irl/accelerate-skillDiscovery/generalized-hindsight/rlkit/../data/None-None-test/None-None-test_2022_04_17_12_15_40_0000--s-1/epoch7_0_temp.mp4':
  Metadata:
    major_brand     : isom
    minor_version   : 512
    compatible_brands: isomiso2mp41
    encoder         : Lavf58.76.100
  Duration: 00:00:13.92, start: 0.000000, bitrate: 1013 kb/s
    Stream #0:0(und): Video: mpeg4 (Simple Profile) (mp4v / 0x7634706D), yuv420p, 500x500 [SAR 1:1 DAR 1:1], 1012 kb/s, 24 fps, 24 tbr, 12288 tbn, 24 tbc (default)
    Metadata:
      handler_name    : VideoHandler
Stream mapping:
  Stream #0:0 -> #0:0 (mpeg4 (native) -> h264 (libx264))
Press [q] to stop, [?] for help
[libx264 @ 0x5559b9e88f00] using SAR=1/1
[libx264 @ 0x5559b9e88f00] using cpu capabilities: MMX2 SSE2Fast SSSE3 SSE4.2 AVX FMA3 BMI2 AVX2 AVX512
[libx264 @ 0x5559b9e88f00] profile High, level 3.0
[libx264 @ 0x5559b9e88f00] 264 - core 155 r2917 0a84d98 - H.264/MPEG-4 AVC codec - Copyleft 2003-2018 - http://www.videolan.org/x264.html - options: cabac=1 ref=3 deblock=1:0:0 analyse=0x3:0x113 me=hex subme=7 psy=1 psy_rd=1.00:0.00 mixed_ref=1 me_range=16 chroma_me=1 trellis=1 8x8dct=1 cqm=0 deadzone=21,11 fast_pskip=1 chroma_qp_offset=-2 threads=3 lookahead_threads=1 sliced_threads=0 nr=0 decimate=1 interlaced=0 bluray_compat=0 constrained_intra=0 bframes=3 b_pyramid=2 b_adapt=1 b_bias=0 direct=1 weightb=1 open_gop=0 weightp=2 keyint=250 keyint_min=24 scenecut=40 intra_refresh=0 rc_lookahead=40 rc=crf mbtree=1 crf=20.0 qcomp=0.60 qpmin=0 qpmax=69 qpstep=4 ip_ratio=1.40 aq=1:1.00
Output #0, mp4, to '/home/yb1025/Research/GRAIL/relabeler-irl/accelerate-skillDiscovery/generalized-hindsight/rlkit/../data/None-None-test/None-None-test_2022_04_17_12_15_40_0000--s-1/epoch7_0.mp4':
  Metadata:
    major_brand     : isom
    minor_version   : 512
    compatible_brands: isomiso2mp41
    encoder         : Lavf58.29.100
    Stream #0:0(und): Video: h264 (libx264) (avc1 / 0x31637661), yuv420p, 500x500 [SAR 1:1 DAR 1:1], q=-1--1, 24 fps, 12288 tbn, 24 tbc (default)
    Metadata:
      handler_name    : VideoHandler
      encoder         : Lavc58.54.100 libx264
    Side data:
      cpb: bitrate max/min/avg: 0/0/0 buffer size: 0 vbv_delay: -1
frame=  191 fps=0.0 q=25.0 size=       0kB time=00:00:05.87 bitrate=   0.1kbits/s speed=11.7x    frame=  334 fps=0.0 q=-1.0 Lsize=     130kB time=00:00:13.79 bitrate=  77.1kbits/s speed=15.3x    
video:125kB audio:0kB subtitle:0kB other streams:0kB global headers:0kB muxing overhead: 3.784657%
[libx264 @ 0x5559b9e88f00] frame I:2     Avg QP:17.74  size: 32800
[libx264 @ 0x5559b9e88f00] frame P:84    Avg QP:19.06  size:   464
[libx264 @ 0x5559b9e88f00] frame B:248   Avg QP:25.86  size:    92
[libx264 @ 0x5559b9e88f00] consecutive B-frames:  0.9%  0.0%  0.9% 98.2%
[libx264 @ 0x5559b9e88f00] mb I  I16..4: 33.8% 14.1% 52.1%
[libx264 @ 0x5559b9e88f00] mb P  I16..4:  0.4%  0.2%  0.1%  P16..4:  2.6%  0.2%  0.2%  0.0%  0.0%    skip:96.4%
[libx264 @ 0x5559b9e88f00] mb B  I16..4:  1.4%  0.0%  0.0%  B16..8:  3.4%  0.0%  0.0%  direct: 0.0%  skip:95.1%  L0:61.9% L1:38.0% BI: 0.2%
[libx264 @ 0x5559b9e88f00] 8x8 transform intra:7.4% inter:75.3%
[libx264 @ 0x5559b9e88f00] coded y,uvDC,uvAC intra: 14.6% 37.7% 17.8% inter: 0.3% 0.5% 0.3%
[libx264 @ 0x5559b9e88f00] i16 v,h,dc,p: 37% 54%  8%  0%
[libx264 @ 0x5559b9e88f00] i8 v,h,dc,ddl,ddr,vr,hd,vl,hu: 27% 17% 43%  4%  1%  2%  1%  3%  2%
[libx264 @ 0x5559b9e88f00] i4 v,h,dc,ddl,ddr,vr,hd,vl,hu: 26% 40% 15%  3%  2%  6%  2%  5%  1%
[libx264 @ 0x5559b9e88f00] i8c dc,h,v,p: 33% 53% 12%  2%
[libx264 @ 0x5559b9e88f00] Weighted P-Frames: Y:0.0% UV:0.0%
[libx264 @ 0x5559b9e88f00] ref P L0: 79.1%  2.4% 14.3%  4.2%
[libx264 @ 0x5559b9e88f00] ref B L0: 53.2% 46.3%  0.5%
[libx264 @ 0x5559b9e88f00] ref B L1: 96.2%  3.8%
[libx264 @ 0x5559b9e88f00] kb/s:73.27
OpenCV: FFMPEG: tag 0x44495658/'XVID' is not supported with codec id 12 and format 'mp4 / MP4 (MPEG-4 Part 14)'
OpenCV: FFMPEG: fallback to use tag 0x7634706d/'mp4v'
ffmpeg version 4.2.4-1ubuntu0.1 Copyright (c) 2000-2020 the FFmpeg developers
  built with gcc 9 (Ubuntu 9.3.0-10ubuntu2)
  configuration: --prefix=/usr --extra-version=1ubuntu0.1 --toolchain=hardened --libdir=/usr/lib/x86_64-linux-gnu --incdir=/usr/include/x86_64-linux-gnu --arch=amd64 --enable-gpl --disable-stripping --enable-avresample --disable-filter=resample --enable-avisynth --enable-gnutls --enable-ladspa --enable-libaom --enable-libass --enable-libbluray --enable-libbs2b --enable-libcaca --enable-libcdio --enable-libcodec2 --enable-libflite --enable-libfontconfig --enable-libfreetype --enable-libfribidi --enable-libgme --enable-libgsm --enable-libjack --enable-libmp3lame --enable-libmysofa --enable-libopenjpeg --enable-libopenmpt --enable-libopus --enable-libpulse --enable-librsvg --enable-librubberband --enable-libshine --enable-libsnappy --enable-libsoxr --enable-libspeex --enable-libssh --enable-libtheora --enable-libtwolame --enable-libvidstab --enable-libvorbis --enable-libvpx --enable-libwavpack --enable-libwebp --enable-libx265 --enable-libxml2 --enable-libxvid --enable-libzmq --enable-libzvbi --enable-lv2 --enable-omx --enable-openal --enable-opencl --enable-opengl --enable-sdl2 --enable-libdc1394 --enable-libdrm --enable-libiec61883 --enable-nvenc --enable-chromaprint --enable-frei0r --enable-libx264 --enable-shared
  libavutil      56. 31.100 / 56. 31.100
  libavcodec     58. 54.100 / 58. 54.100
  libavformat    58. 29.100 / 58. 29.100
  libavdevice    58.  8.100 / 58.  8.100
  libavfilter     7. 57.100 /  7. 57.100
  libavresample   4.  0.  0 /  4.  0.  0
  libswscale      5.  5.100 /  5.  5.100
  libswresample   3.  5.100 /  3.  5.100
  libpostproc    55.  5.100 / 55.  5.100
Input #0, mov,mp4,m4a,3gp,3g2,mj2, from '/home/yb1025/Research/GRAIL/relabeler-irl/accelerate-skillDiscovery/generalized-hindsight/rlkit/../data/None-None-test/None-None-test_2022_04_17_12_15_40_0000--s-1/epoch8_0_temp.mp4':
  Metadata:
    major_brand     : isom
    minor_version   : 512
    compatible_brands: isomiso2mp41
    encoder         : Lavf58.76.100
  Duration: 00:00:13.92, start: 0.000000, bitrate: 1015 kb/s
    Stream #0:0(und): Video: mpeg4 (Simple Profile) (mp4v / 0x7634706D), yuv420p, 500x500 [SAR 1:1 DAR 1:1], 1013 kb/s, 24 fps, 24 tbr, 12288 tbn, 24 tbc (default)
    Metadata:
      handler_name    : VideoHandler
Stream mapping:
  Stream #0:0 -> #0:0 (mpeg4 (native) -> h264 (libx264))
Press [q] to stop, [?] for help
[libx264 @ 0x55e77409bb80] using SAR=1/1
[libx264 @ 0x55e77409bb80] using cpu capabilities: MMX2 SSE2Fast SSSE3 SSE4.2 AVX FMA3 BMI2 AVX2 AVX512
[libx264 @ 0x55e77409bb80] profile High, level 3.0
[libx264 @ 0x55e77409bb80] 264 - core 155 r2917 0a84d98 - H.264/MPEG-4 AVC codec - Copyleft 2003-2018 - http://www.videolan.org/x264.html - options: cabac=1 ref=3 deblock=1:0:0 analyse=0x3:0x113 me=hex subme=7 psy=1 psy_rd=1.00:0.00 mixed_ref=1 me_range=16 chroma_me=1 trellis=1 8x8dct=1 cqm=0 deadzone=21,11 fast_pskip=1 chroma_qp_offset=-2 threads=3 lookahead_threads=1 sliced_threads=0 nr=0 decimate=1 interlaced=0 bluray_compat=0 constrained_intra=0 bframes=3 b_pyramid=2 b_adapt=1 b_bias=0 direct=1 weightb=1 open_gop=0 weightp=2 keyint=250 keyint_min=24 scenecut=40 intra_refresh=0 rc_lookahead=40 rc=crf mbtree=1 crf=20.0 qcomp=0.60 qpmin=0 qpmax=69 qpstep=4 ip_ratio=1.40 aq=1:1.00
Output #0, mp4, to '/home/yb1025/Research/GRAIL/relabeler-irl/accelerate-skillDiscovery/generalized-hindsight/rlkit/../data/None-None-test/None-None-test_2022_04_17_12_15_40_0000--s-1/epoch8_0.mp4':
  Metadata:
    major_brand     : isom
    minor_version   : 512
    compatible_brands: isomiso2mp41
    encoder         : Lavf58.29.100
    Stream #0:0(und): Video: h264 (libx264) (avc1 / 0x31637661), yuv420p, 500x500 [SAR 1:1 DAR 1:1], q=-1--1, 24 fps, 12288 tbn, 24 tbc (default)
    Metadata:
      handler_name    : VideoHandler
      encoder         : Lavc58.54.100 libx264
    Side data:
      cpb: bitrate max/min/avg: 0/0/0 buffer size: 0 vbv_delay: -1
frame=  224 fps=0.0 q=25.0 size=       0kB time=00:00:07.25 bitrate=   0.1kbits/s speed=14.4x    frame=  334 fps=0.0 q=-1.0 Lsize=     125kB time=00:00:13.79 bitrate=  74.3kbits/s speed=16.7x    
video:120kB audio:0kB subtitle:0kB other streams:0kB global headers:0kB muxing overhead: 3.937263%
[libx264 @ 0x55e77409bb80] frame I:2     Avg QP:17.67  size: 32589
[libx264 @ 0x55e77409bb80] frame P:84    Avg QP:19.50  size:   446
[libx264 @ 0x55e77409bb80] frame B:248   Avg QP:25.33  size:    80
[libx264 @ 0x55e77409bb80] consecutive B-frames:  0.9%  0.0%  0.9% 98.2%
[libx264 @ 0x55e77409bb80] mb I  I16..4: 34.6% 12.8% 52.5%
[libx264 @ 0x55e77409bb80] mb P  I16..4:  0.3%  0.2%  0.1%  P16..4:  2.5%  0.1%  0.1%  0.0%  0.0%    skip:96.6%
[libx264 @ 0x55e77409bb80] mb B  I16..4:  0.8%  0.0%  0.0%  B16..8:  3.8%  0.0%  0.0%  direct: 0.0%  skip:95.4%  L0:63.4% L1:36.5% BI: 0.1%
[libx264 @ 0x55e77409bb80] 8x8 transform intra:9.7% inter:71.7%
[libx264 @ 0x55e77409bb80] coded y,uvDC,uvAC intra: 20.1% 46.0% 26.4% inter: 0.3% 0.5% 0.3%
[libx264 @ 0x55e77409bb80] i16 v,h,dc,p: 45% 44%  9%  2%
[libx264 @ 0x55e77409bb80] i8 v,h,dc,ddl,ddr,vr,hd,vl,hu: 28% 11% 49%  3%  1%  2%  1%  3%  2%
[libx264 @ 0x55e77409bb80] i4 v,h,dc,ddl,ddr,vr,hd,vl,hu: 26% 40% 15%  3%  2%  6%  2%  5%  2%
[libx264 @ 0x55e77409bb80] i8c dc,h,v,p: 38% 49% 11%  3%
[libx264 @ 0x55e77409bb80] Weighted P-Frames: Y:0.0% UV:0.0%
[libx264 @ 0x55e77409bb80] ref P L0: 79.6%  2.7% 14.0%  3.7%
[libx264 @ 0x55e77409bb80] ref B L0: 53.3% 46.2%  0.5%
[libx264 @ 0x55e77409bb80] ref B L1: 96.7%  3.3%
[libx264 @ 0x55e77409bb80] kb/s:70.42
OpenCV: FFMPEG: tag 0x44495658/'XVID' is not supported with codec id 12 and format 'mp4 / MP4 (MPEG-4 Part 14)'
OpenCV: FFMPEG: fallback to use tag 0x7634706d/'mp4v'
ffmpeg version 4.2.4-1ubuntu0.1 Copyright (c) 2000-2020 the FFmpeg developers
  built with gcc 9 (Ubuntu 9.3.0-10ubuntu2)
  configuration: --prefix=/usr --extra-version=1ubuntu0.1 --toolchain=hardened --libdir=/usr/lib/x86_64-linux-gnu --incdir=/usr/include/x86_64-linux-gnu --arch=amd64 --enable-gpl --disable-stripping --enable-avresample --disable-filter=resample --enable-avisynth --enable-gnutls --enable-ladspa --enable-libaom --enable-libass --enable-libbluray --enable-libbs2b --enable-libcaca --enable-libcdio --enable-libcodec2 --enable-libflite --enable-libfontconfig --enable-libfreetype --enable-libfribidi --enable-libgme --enable-libgsm --enable-libjack --enable-libmp3lame --enable-libmysofa --enable-libopenjpeg --enable-libopenmpt --enable-libopus --enable-libpulse --enable-librsvg --enable-librubberband --enable-libshine --enable-libsnappy --enable-libsoxr --enable-libspeex --enable-libssh --enable-libtheora --enable-libtwolame --enable-libvidstab --enable-libvorbis --enable-libvpx --enable-libwavpack --enable-libwebp --enable-libx265 --enable-libxml2 --enable-libxvid --enable-libzmq --enable-libzvbi --enable-lv2 --enable-omx --enable-openal --enable-opencl --enable-opengl --enable-sdl2 --enable-libdc1394 --enable-libdrm --enable-libiec61883 --enable-nvenc --enable-chromaprint --enable-frei0r --enable-libx264 --enable-shared
  libavutil      56. 31.100 / 56. 31.100
  libavcodec     58. 54.100 / 58. 54.100
  libavformat    58. 29.100 / 58. 29.100
  libavdevice    58.  8.100 / 58.  8.100
  libavfilter     7. 57.100 /  7. 57.100
  libavresample   4.  0.  0 /  4.  0.  0
  libswscale      5.  5.100 /  5.  5.100
  libswresample   3.  5.100 /  3.  5.100
  libpostproc    55.  5.100 / 55.  5.100
Input #0, mov,mp4,m4a,3gp,3g2,mj2, from '/home/yb1025/Research/GRAIL/relabeler-irl/accelerate-skillDiscovery/generalized-hindsight/rlkit/../data/None-None-test/None-None-test_2022_04_17_12_15_40_0000--s-1/epoch9_0_temp.mp4':
  Metadata:
    major_brand     : isom
    minor_version   : 512
    compatible_brands: isomiso2mp41
    encoder         : Lavf58.76.100
  Duration: 00:00:13.92, start: 0.000000, bitrate: 1013 kb/s
    Stream #0:0(und): Video: mpeg4 (Simple Profile) (mp4v / 0x7634706D), yuv420p, 500x500 [SAR 1:1 DAR 1:1], 1012 kb/s, 24 fps, 24 tbr, 12288 tbn, 24 tbc (default)
    Metadata:
      handler_name    : VideoHandler
Stream mapping:
  Stream #0:0 -> #0:0 (mpeg4 (native) -> h264 (libx264))
Press [q] to stop, [?] for help
[libx264 @ 0x55ca0a9c5e80] using SAR=1/1
[libx264 @ 0x55ca0a9c5e80] using cpu capabilities: MMX2 SSE2Fast SSSE3 SSE4.2 AVX FMA3 BMI2 AVX2 AVX512
[libx264 @ 0x55ca0a9c5e80] profile High, level 3.0
[libx264 @ 0x55ca0a9c5e80] 264 - core 155 r2917 0a84d98 - H.264/MPEG-4 AVC codec - Copyleft 2003-2018 - http://www.videolan.org/x264.html - options: cabac=1 ref=3 deblock=1:0:0 analyse=0x3:0x113 me=hex subme=7 psy=1 psy_rd=1.00:0.00 mixed_ref=1 me_range=16 chroma_me=1 trellis=1 8x8dct=1 cqm=0 deadzone=21,11 fast_pskip=1 chroma_qp_offset=-2 threads=3 lookahead_threads=1 sliced_threads=0 nr=0 decimate=1 interlaced=0 bluray_compat=0 constrained_intra=0 bframes=3 b_pyramid=2 b_adapt=1 b_bias=0 direct=1 weightb=1 open_gop=0 weightp=2 keyint=250 keyint_min=24 scenecut=40 intra_refresh=0 rc_lookahead=40 rc=crf mbtree=1 crf=20.0 qcomp=0.60 qpmin=0 qpmax=69 qpstep=4 ip_ratio=1.40 aq=1:1.00
Output #0, mp4, to '/home/yb1025/Research/GRAIL/relabeler-irl/accelerate-skillDiscovery/generalized-hindsight/rlkit/../data/None-None-test/None-None-test_2022_04_17_12_15_40_0000--s-1/epoch9_0.mp4':
  Metadata:
    major_brand     : isom
    minor_version   : 512
    compatible_brands: isomiso2mp41
    encoder         : Lavf58.29.100
    Stream #0:0(und): Video: h264 (libx264) (avc1 / 0x31637661), yuv420p, 500x500 [SAR 1:1 DAR 1:1], q=-1--1, 24 fps, 12288 tbn, 24 tbc (default)
    Metadata:
      handler_name    : VideoHandler
      encoder         : Lavc58.54.100 libx264
    Side data:
      cpb: bitrate max/min/avg: 0/0/0 buffer size: 0 vbv_delay: -1
frame=  220 fps=0.0 q=25.0 size=       0kB time=00:00:07.08 bitrate=   0.1kbits/s speed=14.1x    frame=  334 fps=0.0 q=-1.0 Lsize=     127kB time=00:00:13.79 bitrate=  75.7kbits/s speed=16.5x    
video:123kB audio:0kB subtitle:0kB other streams:0kB global headers:0kB muxing overhead: 3.860266%
[libx264 @ 0x55ca0a9c5e80] frame I:2     Avg QP:17.72  size: 32768
[libx264 @ 0x55ca0a9c5e80] frame P:84    Avg QP:19.04  size:   445
[libx264 @ 0x55ca0a9c5e80] frame B:248   Avg QP:26.07  size:    89
[libx264 @ 0x55ca0a9c5e80] consecutive B-frames:  0.9%  0.0%  0.9% 98.2%
[libx264 @ 0x55ca0a9c5e80] mb I  I16..4: 33.9% 13.5% 52.5%
[libx264 @ 0x55ca0a9c5e80] mb P  I16..4:  0.4%  0.2%  0.1%  P16..4:  2.4%  0.1%  0.2%  0.0%  0.0%    skip:96.6%
[libx264 @ 0x55ca0a9c5e80] mb B  I16..4:  1.0%  0.0%  0.0%  B16..8:  3.6%  0.0%  0.0%  direct: 0.0%  skip:95.4%  L0:62.2% L1:37.7% BI: 0.1%
[libx264 @ 0x55ca0a9c5e80] 8x8 transform intra:8.7% inter:74.8%
[libx264 @ 0x55ca0a9c5e80] coded y,uvDC,uvAC intra: 18.2% 43.1% 23.7% inter: 0.3% 0.5% 0.3%
[libx264 @ 0x55ca0a9c5e80] i16 v,h,dc,p: 38% 50% 11%  0%
[libx264 @ 0x55ca0a9c5e80] i8 v,h,dc,ddl,ddr,vr,hd,vl,hu: 29% 11% 47%  3%  1%  2%  1%  3%  3%
[libx264 @ 0x55ca0a9c5e80] i4 v,h,dc,ddl,ddr,vr,hd,vl,hu: 26% 40% 15%  3%  2%  6%  2%  5%  2%
[libx264 @ 0x55ca0a9c5e80] i8c dc,h,v,p: 38% 49% 11%  2%
[libx264 @ 0x55ca0a9c5e80] Weighted P-Frames: Y:0.0% UV:0.0%
[libx264 @ 0x55ca0a9c5e80] ref P L0: 82.3%  2.4% 12.1%  3.2%
[libx264 @ 0x55ca0a9c5e80] ref B L0: 53.8% 45.4%  0.8%
[libx264 @ 0x55ca0a9c5e80] ref B L1: 96.6%  3.4%
[libx264 @ 0x55ca0a9c5e80] kb/s:71.83
OpenCV: FFMPEG: tag 0x44495658/'XVID' is not supported with codec id 12 and format 'mp4 / MP4 (MPEG-4 Part 14)'
OpenCV: FFMPEG: fallback to use tag 0x7634706d/'mp4v'
ffmpeg version 4.2.4-1ubuntu0.1 Copyright (c) 2000-2020 the FFmpeg developers
  built with gcc 9 (Ubuntu 9.3.0-10ubuntu2)
  configuration: --prefix=/usr --extra-version=1ubuntu0.1 --toolchain=hardened --libdir=/usr/lib/x86_64-linux-gnu --incdir=/usr/include/x86_64-linux-gnu --arch=amd64 --enable-gpl --disable-stripping --enable-avresample --disable-filter=resample --enable-avisynth --enable-gnutls --enable-ladspa --enable-libaom --enable-libass --enable-libbluray --enable-libbs2b --enable-libcaca --enable-libcdio --enable-libcodec2 --enable-libflite --enable-libfontconfig --enable-libfreetype --enable-libfribidi --enable-libgme --enable-libgsm --enable-libjack --enable-libmp3lame --enable-libmysofa --enable-libopenjpeg --enable-libopenmpt --enable-libopus --enable-libpulse --enable-librsvg --enable-librubberband --enable-libshine --enable-libsnappy --enable-libsoxr --enable-libspeex --enable-libssh --enable-libtheora --enable-libtwolame --enable-libvidstab --enable-libvorbis --enable-libvpx --enable-libwavpack --enable-libwebp --enable-libx265 --enable-libxml2 --enable-libxvid --enable-libzmq --enable-libzvbi --enable-lv2 --enable-omx --enable-openal --enable-opencl --enable-opengl --enable-sdl2 --enable-libdc1394 --enable-libdrm --enable-libiec61883 --enable-nvenc --enable-chromaprint --enable-frei0r --enable-libx264 --enable-shared
  libavutil      56. 31.100 / 56. 31.100
  libavcodec     58. 54.100 / 58. 54.100
  libavformat    58. 29.100 / 58. 29.100
  libavdevice    58.  8.100 / 58.  8.100
  libavfilter     7. 57.100 /  7. 57.100
  libavresample   4.  0.  0 /  4.  0.  0
  libswscale      5.  5.100 /  5.  5.100
  libswresample   3.  5.100 /  3.  5.100
  libpostproc    55.  5.100 / 55.  5.100
Input #0, mov,mp4,m4a,3gp,3g2,mj2, from '/home/yb1025/Research/GRAIL/relabeler-irl/accelerate-skillDiscovery/generalized-hindsight/rlkit/../data/None-None-test/None-None-test_2022_04_17_12_15_40_0000--s-1/epoch19_0_temp.mp4':
  Metadata:
    major_brand     : isom
    minor_version   : 512
    compatible_brands: isomiso2mp41
    encoder         : Lavf58.76.100
  Duration: 00:00:13.92, start: 0.000000, bitrate: 1011 kb/s
    Stream #0:0(und): Video: mpeg4 (Simple Profile) (mp4v / 0x7634706D), yuv420p, 500x500 [SAR 1:1 DAR 1:1], 1010 kb/s, 24 fps, 24 tbr, 12288 tbn, 24 tbc (default)
    Metadata:
      handler_name    : VideoHandler
Stream mapping:
  Stream #0:0 -> #0:0 (mpeg4 (native) -> h264 (libx264))
Press [q] to stop, [?] for help
[libx264 @ 0x55f484122f40] using SAR=1/1
[libx264 @ 0x55f484122f40] using cpu capabilities: MMX2 SSE2Fast SSSE3 SSE4.2 AVX FMA3 BMI2 AVX2 AVX512
[libx264 @ 0x55f484122f40] profile High, level 3.0
[libx264 @ 0x55f484122f40] 264 - core 155 r2917 0a84d98 - H.264/MPEG-4 AVC codec - Copyleft 2003-2018 - http://www.videolan.org/x264.html - options: cabac=1 ref=3 deblock=1:0:0 analyse=0x3:0x113 me=hex subme=7 psy=1 psy_rd=1.00:0.00 mixed_ref=1 me_range=16 chroma_me=1 trellis=1 8x8dct=1 cqm=0 deadzone=21,11 fast_pskip=1 chroma_qp_offset=-2 threads=3 lookahead_threads=1 sliced_threads=0 nr=0 decimate=1 interlaced=0 bluray_compat=0 constrained_intra=0 bframes=3 b_pyramid=2 b_adapt=1 b_bias=0 direct=1 weightb=1 open_gop=0 weightp=2 keyint=250 keyint_min=24 scenecut=40 intra_refresh=0 rc_lookahead=40 rc=crf mbtree=1 crf=20.0 qcomp=0.60 qpmin=0 qpmax=69 qpstep=4 ip_ratio=1.40 aq=1:1.00
Output #0, mp4, to '/home/yb1025/Research/GRAIL/relabeler-irl/accelerate-skillDiscovery/generalized-hindsight/rlkit/../data/None-None-test/None-None-test_2022_04_17_12_15_40_0000--s-1/epoch19_0.mp4':
  Metadata:
    major_brand     : isom
    minor_version   : 512
    compatible_brands: isomiso2mp41
    encoder         : Lavf58.29.100
    Stream #0:0(und): Video: h264 (libx264) (avc1 / 0x31637661), yuv420p, 500x500 [SAR 1:1 DAR 1:1], q=-1--1, 24 fps, 12288 tbn, 24 tbc (default)
    Metadata:
      handler_name    : VideoHandler
      encoder         : Lavc58.54.100 libx264
    Side data:
      cpb: bitrate max/min/avg: 0/0/0 buffer size: 0 vbv_delay: -1
frame=  222 fps=0.0 q=25.0 size=       0kB time=00:00:07.16 bitrate=   0.1kbits/s speed=14.3x    frame=  334 fps=0.0 q=-1.0 Lsize=     126kB time=00:00:13.79 bitrate=  74.8kbits/s speed=16.6x    
video:121kB audio:0kB subtitle:0kB other streams:0kB global headers:0kB muxing overhead: 3.905589%
[libx264 @ 0x55f484122f40] frame I:2     Avg QP:17.79  size: 32650
[libx264 @ 0x55f484122f40] frame P:84    Avg QP:19.13  size:   455
[libx264 @ 0x55f484122f40] frame B:248   Avg QP:26.77  size:    81
[libx264 @ 0x55f484122f40] consecutive B-frames:  0.9%  0.0%  0.9% 98.2%
[libx264 @ 0x55f484122f40] mb I  I16..4: 33.7% 14.0% 52.2%
[libx264 @ 0x55f484122f40] mb P  I16..4:  0.4%  0.2%  0.1%  P16..4:  2.6%  0.2%  0.1%  0.0%  0.0%    skip:96.4%
[libx264 @ 0x55f484122f40] mb B  I16..4:  0.6%  0.3%  0.0%  B16..8:  2.7%  0.0%  0.0%  direct: 0.0%  skip:96.2%  L0:60.2% L1:39.7% BI: 0.1%
[libx264 @ 0x55f484122f40] 8x8 transform intra:24.3% inter:72.8%
[libx264 @ 0x55f484122f40] coded y,uvDC,uvAC intra: 18.6% 40.2% 22.4% inter: 0.3% 0.5% 0.3%
[libx264 @ 0x55f484122f40] i16 v,h,dc,p: 34% 51% 14%  0%
[libx264 @ 0x55f484122f40] i8 v,h,dc,ddl,ddr,vr,hd,vl,hu: 11%  4% 80%  1%  0%  1%  0%  1%  1%
[libx264 @ 0x55f484122f40] i4 v,h,dc,ddl,ddr,vr,hd,vl,hu: 26% 40% 15%  3%  2%  6%  2%  5%  1%
[libx264 @ 0x55f484122f40] i8c dc,h,v,p: 38% 49% 11%  2%
[libx264 @ 0x55f484122f40] Weighted P-Frames: Y:0.0% UV:0.0%
[libx264 @ 0x55f484122f40] ref P L0: 80.2%  2.6% 13.0%  4.3%
[libx264 @ 0x55f484122f40] ref B L0: 57.9% 41.3%  0.8%
[libx264 @ 0x55f484122f40] ref B L1: 94.9%  5.1%
[libx264 @ 0x55f484122f40] kb/s:70.99
slurmstepd: error: *** JOB 18180317 ON gv006 CANCELLED AT 2022-04-17T12:21:01 ***
